<svg width="153" height="42" viewBox="0 0 153 42" fill="none" xmlns="http://www.w3.org/2000/svg">
<path d="M76.0352 23.459C76.0352 20.5063 76.9171 18.0521 78.6811 16.0965C80.445 14.1408 82.6691 13.1821 85.3533 13.1821C87.6541 13.1821 89.5331 13.9491 90.9136 15.4829C92.2941 17.0168 92.9843 19.0491 92.9843 21.6567C92.9843 24.6094 92.1023 27.0636 90.3767 29.0192C88.6128 30.9749 86.427 31.9336 83.7428 31.9336C81.4037 31.9336 79.5247 31.1666 78.1442 29.6328C76.7254 28.0606 76.0352 26.0282 76.0352 23.459ZM80.4833 23.7274C80.4833 25.2613 80.7901 26.4117 81.4037 27.1786C82.0172 27.9455 82.8225 28.329 83.8962 28.329C85.3534 28.329 86.4654 27.6388 87.3474 26.2583C88.191 24.8778 88.6128 23.2673 88.6128 21.4266C88.6128 19.8928 88.306 18.7424 87.6925 17.9754C87.0789 17.2085 86.2737 16.825 85.2 16.825C83.7428 16.825 82.6308 17.5153 81.7488 18.8958C80.9052 20.2762 80.4833 21.8868 80.4833 23.7274Z" fill="#0F0D0D"/>
<path d="M95.0938 13.4502H99.5036L99.7337 26.8715C100.961 23.6504 102.686 19.1638 104.795 13.4502H109.129C110.049 21.6947 110.547 26.1429 110.624 26.8331L114.459 13.4502H119.175L113.04 31.7031H107.441C107.403 31.358 107.288 30.476 107.135 29.0189C106.943 27.6001 106.828 26.5263 106.751 25.8745C106.674 25.2226 106.598 24.2639 106.483 23.0368C106.368 21.8097 106.329 20.621 106.291 19.4706C105.907 20.621 105.524 21.8097 105.102 23.0368C104.68 24.2639 104.297 25.2609 104.028 26.0279C103.722 26.7948 103.338 27.7918 102.878 29.0189C102.418 30.246 102.073 31.1279 101.881 31.6648H96.2058L95.0938 13.4502Z" fill="#0F0D0D"/>
<path d="M51.4219 13.3735H55.8317L56.0618 26.7948C57.2889 23.5737 59.0145 19.0872 61.1235 13.3735H65.4567C66.377 21.618 66.8755 26.0662 66.9522 26.7565L70.7868 13.3735H75.5035L69.368 31.6265H63.8078C63.7694 31.2813 63.6544 30.3994 63.501 28.9422C63.3093 27.5234 63.1942 26.4497 63.1176 25.7978C63.0409 25.1459 62.9642 24.1872 62.8491 22.9602C62.7341 21.7331 62.6957 20.5443 62.6574 19.3939C62.2739 20.5443 61.8905 21.7331 61.4686 22.9602C61.0468 24.1872 60.6634 25.1843 60.3949 25.9512C60.0882 26.7181 59.7047 27.7151 59.2446 28.9422C58.7844 30.1693 58.4393 31.0513 58.2475 31.5881H52.5723L51.4219 13.3735Z" fill="#0F0D0D"/>
<path d="M119.676 31.7031L122.207 13.4502H127.422L129.377 26.603L134.976 13.4502H140.229L137.699 31.7031H133.787L134.324 27.7534C134.823 24.2256 135.206 21.733 135.551 20.2759L130.758 31.4347H126.847L125.159 20.2759C125.044 22.3082 124.738 24.8008 124.354 27.7534L123.817 31.7031H119.676Z" fill="#0F0D0D"/>
<path d="M144.832 31.8184H140.652L143.183 13.5654H147.363L144.832 31.8184Z" fill="#0F0D0D"/>
<path d="M147.823 10.1909L147.363 13.5654H151.543L152.003 10.1909H147.823Z" fill="#ff4b21"/>
<path d="M32.5349 41.732H8.81326C3.95361 41.732 0 37.7784 0 32.9187V9.19705C0 4.3374 3.95361 0.383789 8.81326 0.383789H32.5349C37.3946 0.383789 41.3482 4.3374 41.3482 9.19705V32.9187C41.307 37.8195 37.3946 41.732 32.5349 41.732Z" fill="#ff4b21"/>
<path d="M24.6899 26.0049C24.6075 25.1812 24.031 19.9097 22.919 10.1904H17.8123C15.3001 16.9445 13.2821 22.216 11.8407 26.0049L11.5524 10.1904H6.36328L7.68115 31.7294H14.3941C14.6412 31.1116 15.0118 30.0408 15.5884 28.5994C16.1649 27.158 16.618 25.9637 16.9474 25.0576C17.2769 24.1516 17.7299 22.9573 18.2241 21.5159C18.7183 20.0745 19.2125 18.6742 19.6243 17.3152C19.6655 18.6742 19.7479 20.0745 19.8715 21.5571C19.995 22.9985 20.0774 24.1104 20.1597 24.8929C20.2421 25.6754 20.3656 26.9109 20.6127 28.5994C20.8187 30.2879 20.9422 31.3587 20.9834 31.7706H27.5727L32.8442 16.0797H27.5727L24.6899 26.0049Z" fill="#F3F3F3"/>
<path d="M33.3794 14.1852L34.7385 10.1904H29.1375L27.9844 14.1852H28.0256H33.3794Z" fill="#F3F3F3"/>
</svg>
